<?xml version="1.0" standalone="no"?>
<!DOCTYPE svg PUBLIC "-//W3C//DTD SVG 20010904//EN"
 "http://www.w3.org/TR/2001/REC-SVG-20010904/DTD/svg10.dtd">
<svg version="1.0" xmlns="http://www.w3.org/2000/svg"
 width="50.000000pt" height="50.000000pt" viewBox="0 0 50.000000 50.000000"
 preserveAspectRatio="xMidYMid meet">

<g transform="translate(0.000000,50.000000) scale(0.100000,-0.100000)"
fill="#000000" stroke="none">
<path d="M149 472 c-105 -55 -148 -183 -96 -285 l24 -47 -23 0 c-13 0 -24 -4
-24 -10 0 -5 20 -10 45 -10 l45 0 0 45 c0 25 -4 45 -10 45 -5 0 -10 -15 -10
-32 l0 -33 -23 35 c-34 53 -31 152 5 207 41 63 90 88 169 88 54 0 72 -5 106
-27 63 -41 88 -90 88 -169 0 -55 -4 -72 -28 -107 -20 -30 -23 -42 -13 -42 8 0
27 25 41 55 23 45 27 65 23 110 -7 78 -48 141 -117 177 -71 37 -131 37 -202 0z"/>
<path d="M202 415 c-17 -8 -37 -26 -42 -40 -14 -36 -6 -134 13 -172 29 -55 23
-70 -43 -103 -58 -29 -80 -53 -80 -84 0 -14 25 -16 200 -16 175 0 200 2 200
16 0 31 -22 55 -80 84 -67 34 -72 47 -42 108 19 37 27 129 16 165 -5 17 -75
57 -99 56 -5 0 -25 -6 -43 -14z m82 -20 c22 -9 38 -24 41 -38 9 -39 0 -111
-18 -145 -10 -18 -17 -48 -15 -65 3 -28 10 -35 60 -59 31 -15 62 -36 68 -48
11 -20 9 -20 -170 -20 -179 0 -181 0 -170 20 6 12 37 33 68 48 50 24 57 31 60
59 2 17 -5 47 -14 65 -23 43 -28 135 -9 165 8 12 25 24 37 26 13 2 24 5 24 6
1 0 18 -6 38 -14z"/>
</g>
</svg>
